<?xml version="1.0" standalone="no"?>
<!DOCTYPE svg PUBLIC "-//W3C//DTD SVG 20010904//EN"
 "http://www.w3.org/TR/2001/REC-SVG-20010904/DTD/svg10.dtd">
<svg version="1.0" xmlns="http://www.w3.org/2000/svg"
 width="2048.000000pt" height="2048.000000pt" viewBox="0 0 2048.000000 2048.000000"
 preserveAspectRatio="xMidYMid meet">
<metadata>
Created by potrace 1.14, written by Peter Selinger 2001-2017
</metadata>
<g transform="translate(0.000000,2048.000000) scale(0.100000,-0.100000)"
fill="#000000" stroke="none">
<path d="M11577 19714 c-1 -1 -42 -4 -92 -7 -95 -7 -312 -33 -355 -43 -14 -3
-38 -8 -55 -11 -16 -2 -79 -16 -140 -29 -1265 -292 -2286 -1221 -2703 -2459
-50 -148 -118 -422 -138 -552 -3 -21 -9 -65 -14 -98 -5 -33 -12 -89 -15 -125
-4 -36 -9 -76 -12 -90 -3 -14 -7 -1684 -8 -3712 l-2 -3688 3633 0 3633 0 -4
168 c-4 151 -8 230 -20 402 -6 80 -16 191 -20 220 -2 14 -7 54 -10 90 -4 36
-9 72 -10 81 -2 9 -6 40 -10 70 -9 73 -70 413 -94 524 -95 441 -263 955 -457
1395 -156 354 -400 790 -632 1130 -75 110 -276 386 -291 400 -4 3 -33 39 -66
80 -33 41 -69 86 -81 100 -88 102 -179 206 -215 247 -80 88 -425 427 -507 498
l-81 70 0 1524 -1 1524 -177 -6 c-98 -4 -187 -8 -198 -11 -11 -2 -47 -7 -80
-10 -134 -15 -379 -62 -500 -95 -38 -11 -71 -18 -74 -16 -2 2 -4 550 -5 1217
l-1 1213 -98 0 c-54 0 -99 0 -100 -1z m-1416 -7138 c578 -123 809 -827 412
-1256 -76 -82 -133 -125 -228 -173 -239 -120 -555 -97 -770 57 -259 186 -379
502 -304 806 71 286 292 501 584 565 80 18 224 18 306 1z"/>
<path d="M6957 12624 c-1 -1 -40 -5 -87 -8 -94 -8 -113 -10 -250 -32 -424 -67
-868 -221 -1238 -430 -183 -104 -433 -279 -596 -417 -103 -88 -340 -327 -427
-432 -544 -652 -839 -1415 -875 -2258 l-6 -147 1869 2 1868 3 1 1863 1 1863
-129 -2 c-71 -2 -130 -4 -131 -5z"/>
<path d="M14938 8164 c-2 -1 -55 -5 -118 -9 -63 -3 -133 -7 -155 -10 -22 -2
-60 -7 -85 -9 -25 -3 -72 -8 -105 -11 -33 -4 -71 -8 -85 -10 -14 -2 -45 -7
-70 -10 -25 -3 -125 -20 -222 -36 -1161 -197 -2265 -693 -3193 -1433 -82 -66
-163 -132 -180 -147 -16 -14 -75 -66 -130 -115 -133 -117 -409 -391 -517 -512
-47 -53 -100 -113 -118 -132 -17 -19 -91 -109 -164 -200 -785 -973 -1294
-2135 -1475 -3366 -31 -212 -36 -250 -56 -474 -17 -195 -28 -549 -17 -567 5
-8 861 -11 3532 -10 l3525 2 1 3528 2 3528 -184 -2 c-101 -1 -185 -3 -186 -5z"/>
<path d="M8032 7103 l-1 -1045 117 6 c206 11 405 51 595 120 107 39 303 131
361 171 20 14 39 25 42 25 12 0 182 127 254 190 320 278 549 645 656 1050 9
36 18 74 20 85 1 11 10 58 18 105 9 47 19 128 22 180 7 108 7 97 5 132 l-1 26
-1044 0 -1044 0 0 -1045z"/>
<path d="M5148 8128 c-5 -13 -4 -37 6 -173 8 -98 11 -119 43 -270 34 -162 81
-293 163 -460 108 -220 221 -378 394 -550 369 -367 833 -573 1352 -602 l111
-6 -1 1034 -1 1034 -1031 3 c-820 2 -1033 0 -1036 -10z"/>
</g>
</svg>
